<svg width="46" height="31" viewBox="0 0 46 31" fill="none" xmlns="http://www.w3.org/2000/svg">
<path d="M14.5499 2.43701V21.0722L4.39267 2.43701H0.0383301V30.9134H4.39267V12.2447L14.5499 30.9134H18.9043V2.43701H14.5499Z" fill="white"/>
<path d="M37.8761 30.9379V26.79C40.142 26.79 41.9853 24.8831 41.9853 22.5394C41.9853 20.1951 40.142 18.2887 37.8761 18.2887H28.9665C24.4902 18.2887 20.8485 14.5207 20.8485 9.8897C20.8485 5.25869 24.4902 1.49121 28.9665 1.49121V5.63907C26.7011 5.63907 24.8579 7.54599 24.8579 9.8897C24.8579 12.2334 26.7011 14.1403 28.9665 14.1403H37.8761C42.3524 14.1403 45.9946 17.9078 45.9946 22.5388C45.9946 27.1698 42.353 30.9379 37.8761 30.9379Z" fill="#D0125C"/>
<path d="M25.7248 26.7192L23.9701 30.9134H23.0431L21.2938 26.7192H22.3072L23.5404 29.7148L24.7913 26.7192H25.7248Z" fill="white"/>
<path d="M26.0607 26.7192H26.999V30.9134H26.0607V26.7192Z" fill="white"/>
<path d="M28.3623 30.8501C28.0632 30.7602 27.8229 30.6434 27.641 30.4993L27.9595 29.7682C28.1334 29.9 28.3396 30.0056 28.5793 30.086C28.8185 30.1659 29.0577 30.2055 29.2974 30.2055C29.5641 30.2055 29.7607 30.1648 29.8881 30.0827C30.0155 30.0006 30.0792 29.8916 30.0792 29.7559C30.0792 29.6565 30.0414 29.5733 29.9664 29.5073C29.8913 29.4414 29.7947 29.3884 29.677 29.3487C29.5593 29.3091 29.4 29.2649 29.1992 29.2169C28.8903 29.1409 28.6377 29.065 28.4406 28.989C28.2435 28.913 28.0745 28.7913 27.9336 28.6237C27.7927 28.4561 27.722 28.2322 27.722 27.9529C27.722 27.7093 27.7857 27.4887 27.9131 27.291C28.0405 27.0927 28.2322 26.9363 28.4892 26.8207C28.7456 26.7045 29.0593 26.647 29.4302 26.647C29.6889 26.647 29.9421 26.6794 30.1888 26.743C30.4361 26.8073 30.652 26.8989 30.8372 27.019L30.5478 27.7557C30.1731 27.5362 29.7985 27.4262 29.4243 27.4262C29.1614 27.4262 28.9675 27.4703 28.8423 27.558C28.717 27.6457 28.6544 27.7619 28.6544 27.9054C28.6544 28.049 28.7267 28.1562 28.8714 28.226C29.0161 28.2964 29.2375 28.3651 29.5344 28.4327C29.8433 28.5086 30.0959 28.5846 30.293 28.6606C30.4901 28.7365 30.6591 28.8561 30.8 29.0197C30.9409 29.1834 31.0116 29.4057 31.0116 29.685C31.0116 29.9246 30.9468 30.143 30.8178 30.3407C30.6882 30.5384 30.4944 30.6954 30.2358 30.811C29.9772 30.9266 29.6624 30.9847 29.2915 30.9847C28.9713 30.9853 28.6614 30.94 28.3623 30.8501Z" fill="white"/>
<path d="M34.3244 30.0147H32.4423L32.0833 30.9134H31.1217L32.9288 26.7192H33.8553L35.6677 30.9134H34.6835L34.3244 30.0147ZM34.0291 29.2774L33.3861 27.6716L32.743 29.2774H34.0291Z" fill="white"/>
<path d="M36.8362 1.13821C37.1531 0.995773 37.5219 1.14603 37.6601 1.47446C37.7978 1.80233 37.6526 2.18383 37.3351 2.32682L32.7103 4.40522C32.6762 4.4203 32.6368 4.41415 32.6088 4.38958L30.9135 2.88426L31.4431 2.5508C31.4933 2.51952 31.5554 2.51617 31.6083 2.54186L32.3987 2.9295C32.5364 2.99709 32.6951 2.99988 32.835 2.93676L34.3176 2.2704C34.35 2.25588 34.3564 2.2112 34.3294 2.18718L32.152 0.249539L32.4894 0.0372863C32.565 -0.0101912 32.6595 -0.0124255 32.7367 0.0311421L35.5021 1.59064C35.5939 1.64203 35.703 1.64705 35.7985 1.6046L36.8362 1.13821Z" fill="white"/>
</svg>
