<svg width="62" height="39" viewBox="0 0 62 39" fill="none" xmlns="http://www.w3.org/2000/svg">
<path d="M19.6107 3.0659V26.5102L5.92053 3.0659H0.0516357V38.8911H5.92053V15.4047L19.6107 38.8911H25.4796V3.0659H19.6107Z" fill="#15153F"/>
<path d="M51.0503 38.922V33.7037C54.1044 33.7037 56.5888 31.3047 56.5888 28.3562C56.5888 25.4069 54.1044 23.0086 51.0503 23.0086H39.0418C33.0084 23.0086 28.1001 18.2682 28.1001 12.4421C28.1001 6.61596 33.0084 1.87623 39.0418 1.87623V7.0945C35.9884 7.0945 33.504 9.49353 33.504 12.4421C33.504 15.3906 35.9884 17.7896 39.0418 17.7896H51.0503C57.0836 17.7896 61.9927 22.5294 61.9927 28.3555C61.9927 34.1816 57.0844 38.922 51.0503 38.922Z" fill="#D0125C"/>
<path d="M34.6727 33.6145L32.3076 38.8911H31.0582L28.7004 33.6145H30.0663L31.7284 37.3831L33.4145 33.6145H34.6727Z" fill="#15153F"/>
<path d="M35.1252 33.6145H36.39V38.8911H35.1252V33.6145Z" fill="#15153F"/>
<path d="M38.2275 38.8117C37.8243 38.6986 37.5005 38.5517 37.2552 38.3704L37.6846 37.4506C37.9189 37.6164 38.1969 37.7492 38.52 37.8504C38.8424 37.9509 39.1647 38.0008 39.4878 38.0008C39.8473 38.0008 40.1122 37.9495 40.2839 37.8462C40.4557 37.7429 40.5415 37.6059 40.5415 37.4351C40.5415 37.31 40.4906 37.2053 40.3895 37.1224C40.2883 37.0395 40.158 36.9727 39.9994 36.9228C39.8408 36.8729 39.6261 36.8174 39.3554 36.757C38.9391 36.6614 38.5986 36.5659 38.333 36.4703C38.0674 36.3747 37.8396 36.2215 37.6497 36.0107C37.4597 35.7999 37.3644 35.5181 37.3644 35.1668C37.3644 34.8604 37.4503 34.5828 37.622 34.3341C37.7937 34.0846 38.0521 33.8879 38.3985 33.7424C38.7441 33.5962 39.1669 33.5239 39.6668 33.5239C40.0154 33.5239 40.3567 33.5646 40.6893 33.6447C41.0226 33.7255 41.3136 33.8408 41.5632 33.9919L41.1732 34.9187C40.6682 34.6426 40.1631 34.5041 39.6588 34.5041C39.3045 34.5041 39.0432 34.5596 38.8744 34.67C38.7056 34.7803 38.6211 34.9264 38.6211 35.107C38.6211 35.2876 38.7187 35.4226 38.9137 35.5104C39.1087 35.5989 39.4071 35.6854 39.8073 35.7704C40.2235 35.866 40.5641 35.9615 40.8297 36.0571C41.0953 36.1527 41.3231 36.303 41.513 36.5089C41.703 36.7148 41.7983 36.9945 41.7983 37.3459C41.7983 37.6473 41.711 37.9221 41.537 38.1708C41.3624 38.4196 41.1011 38.6171 40.7526 38.7625C40.404 38.908 39.9798 38.9811 39.4798 38.9811C39.0483 38.9818 38.6306 38.9248 38.2275 38.8117Z" fill="#15153F"/>
<path d="M46.2635 37.7604H43.7267L43.2428 38.8911H41.9468L44.3824 33.6145H45.6311L48.074 38.8911H46.7474L46.2635 37.7604ZM45.8654 36.8329L44.9988 34.8126L44.1321 36.8329H45.8654Z" fill="#15153F"/>
<path d="M49.6488 1.43212C50.0759 1.25293 50.5729 1.44196 50.7592 1.85515C50.9448 2.26763 50.7491 2.74758 50.3212 2.92747L44.0877 5.54223C44.0418 5.5612 43.9887 5.55347 43.9509 5.52255L41.6659 3.62877L42.3798 3.20926C42.4474 3.16991 42.5311 3.16569 42.6024 3.19801L43.6678 3.68569C43.8534 3.77072 44.0673 3.77423 44.2558 3.69482L46.254 2.8565C46.2977 2.83823 46.3064 2.78201 46.2701 2.7518L43.3352 0.314121L43.7901 0.0470935C43.8919 -0.0126362 44.0193 -0.015447 44.1233 0.0393638L47.8506 2.00131C47.9743 2.06596 48.1213 2.07228 48.2501 2.01888L49.6488 1.43212Z" fill="#15153F"/>
</svg>
